# xmcd CD database file
#
# Track frame offsets:
#	150
#	12827
#	31055
#	41475
#	48240
#	58820
#	73812
#	89942
#	103527
#	115817
#	130115
#	141232
#	156157
#	166622
#	180780
#	200755
#
# Disc length: 2809 seconds
#
# Revision: 0
# Processed by: cddbd v1.5.1PL0 Copyright (c) Steve Scherf et al.
# Submitted via: CDex 1.51
#
DISCID=d60af710
DTITLE=Various Artist - Country Holidays
DYEAR=1993
DGENRE=Country
TTITLE0=East Tennessee Christmas - Chet Atkins
TTITLE1=Sweet Little Jesus Boy - Ed Bruce
TTITLE2=Frosty The Snowman - Lynn Anderson
TTITLE3=O Little Town Of Bethlehem - Willie Nelson
TTITLE4=What Child Is This - Janie Frickie
TTITLE5=Christmas Roses - Grandpa Jones
TTITLE6=The First Noel - B.J. Thomas
TTITLE7=Silver Bells - Henson Cargill
TTITLE8=Winter Wonderland - McClain and Massey
TTITLE9=Silent Night, Holy Night - Gatlin Brothers
TTITLE10=God Rest You Merry Gentlemen - Charlie Rich
TTITLE11=I'll Be Home For Christmas - Mickey Gilley
TTITLE12=Jingle Bells - George Jones
TTITLE13=Hark The Herald Angels Sing - Marty Robbins
TTITLE14=The Ballad Of The Harp Weaver - Johnny Cash
TTITLE15=Joy To The World - Tammy Wynette
EXTD=YEAR: 1993
EXTT0=
EXTT1=
EXTT2=
EXTT3=
EXTT4=
EXTT5=
EXTT6=
EXTT7=
EXTT8=
EXTT9=
EXTT10=
EXTT11=
EXTT12=
EXTT13=
EXTT14=
EXTT15=
PLAYORDER=
